<svg width="16" height="16" viewBox="0 0 16 16" fill="none" xmlns="http://www.w3.org/2000/svg">
<path d="M2.5 2C2.36739 2 2.24021 2.05268 2.14645 2.14645C2.05268 2.24021 2 2.36739 2 2.5C2 2.63261 2.05268 2.75979 2.14645 2.85355C2.24021 2.94732 2.36739 3 2.5 3H2.746C2.85457 3.00019 2.96013 3.03571 3.04673 3.1012C3.13332 3.16669 3.19625 3.25858 3.226 3.363L4.812 8.913C4.9017 9.22621 5.09094 9.50169 5.3511 9.6978C5.61126 9.89392 5.9282 9.99999 6.254 10H10.823C11.1228 10.0001 11.4158 9.91024 11.6641 9.74215C11.9124 9.57406 12.1047 9.33541 12.216 9.057L13.69 5.371C13.7506 5.21933 13.7731 5.05512 13.7556 4.89273C13.7381 4.73034 13.681 4.57472 13.5895 4.43946C13.4979 4.3042 13.3747 4.19343 13.2304 4.11682C13.0861 4.04021 12.9253 4.0001 12.762 4H4.448L4.187 3.088C4.09753 2.77477 3.90852 2.49919 3.64854 2.3029C3.38856 2.10661 3.07176 2.00028 2.746 2H2.5ZM5.774 8.637L4.734 5H12.761L11.287 8.686C11.2499 8.77869 11.1858 8.85813 11.1031 8.91409C11.0204 8.97006 10.9229 8.99998 10.823 9H6.254C6.14543 8.99981 6.03987 8.96429 5.95327 8.8988C5.86668 8.83331 5.80375 8.74142 5.774 8.637V8.637Z" fill="white"/>
<path d="M6.5 14C6.69698 14 6.89204 13.9612 7.07403 13.8858C7.25601 13.8104 7.42137 13.6999 7.56066 13.5607C7.69995 13.4214 7.81044 13.256 7.88582 13.074C7.9612 12.892 8 12.697 8 12.5C8 12.303 7.9612 12.108 7.88582 11.926C7.81044 11.744 7.69995 11.5786 7.56066 11.4393C7.42137 11.3001 7.25601 11.1896 7.07403 11.1142C6.89204 11.0388 6.69698 11 6.5 11C6.10218 11 5.72064 11.158 5.43934 11.4393C5.15804 11.7206 5 12.1022 5 12.5C5 12.8978 5.15804 13.2794 5.43934 13.5607C5.72064 13.842 6.10218 14 6.5 14V14ZM6.5 13C6.36739 13 6.24021 12.9473 6.14645 12.8536C6.05268 12.7598 6 12.6326 6 12.5C6 12.3674 6.05268 12.2402 6.14645 12.1464C6.24021 12.0527 6.36739 12 6.5 12C6.63261 12 6.75979 12.0527 6.85355 12.1464C6.94732 12.2402 7 12.3674 7 12.5C7 12.6326 6.94732 12.7598 6.85355 12.8536C6.75979 12.9473 6.63261 13 6.5 13Z" fill="white"/>
<path d="M10.5 14C10.697 14 10.892 13.9612 11.074 13.8858C11.256 13.8104 11.4214 13.6999 11.5607 13.5607C11.6999 13.4214 11.8104 13.256 11.8858 13.074C11.9612 12.892 12 12.697 12 12.5C12 12.303 11.9612 12.108 11.8858 11.926C11.8104 11.744 11.6999 11.5786 11.5607 11.4393C11.4214 11.3001 11.256 11.1896 11.074 11.1142C10.892 11.0388 10.697 11 10.5 11C10.1022 11 9.72064 11.158 9.43934 11.4393C9.15804 11.7206 9 12.1022 9 12.5C9 12.8978 9.15804 13.2794 9.43934 13.5607C9.72064 13.842 10.1022 14 10.5 14V14ZM10.5 13C10.3674 13 10.2402 12.9473 10.1464 12.8536C10.0527 12.7598 10 12.6326 10 12.5C10 12.3674 10.0527 12.2402 10.1464 12.1464C10.2402 12.0527 10.3674 12 10.5 12C10.6326 12 10.7598 12.0527 10.8536 12.1464C10.9473 12.2402 11 12.3674 11 12.5C11 12.6326 10.9473 12.7598 10.8536 12.8536C10.7598 12.9473 10.6326 13 10.5 13Z" fill="white"/>
</svg>
